<svg width="24" height="25" viewBox="0 0 24 25" fill="none" xmlns="http://www.w3.org/2000/svg">
<path d="M17.2353 1.8515C17.0406 1.85718 16.8556 1.93843 16.7197 2.07806L6.9697 11.8281C6.82911 11.9687 6.75012 12.1595 6.75012 12.3583C6.75012 12.5572 6.82911 12.748 6.9697 12.8886L16.7197 22.6386C16.7888 22.7106 16.8716 22.7681 16.9632 22.8076C17.0548 22.8472 17.1534 22.8681 17.2531 22.8692C17.3529 22.8702 17.4519 22.8513 17.5443 22.8135C17.6367 22.7758 17.7206 22.7201 17.7911 22.6495C17.8617 22.5789 17.9175 22.495 17.9552 22.4026C17.9929 22.3103 18.0118 22.2113 18.0108 22.1115C18.0098 22.0117 17.9889 21.9131 17.9493 21.8215C17.9097 21.7299 17.8522 21.6472 17.7803 21.5781L8.56052 12.3583L17.7803 3.13861C17.8885 3.03323 17.9623 2.89764 17.9922 2.74959C18.0221 2.60154 18.0065 2.44792 17.9476 2.30883C17.8888 2.16975 17.7893 2.05168 17.6622 1.97008C17.5351 1.88848 17.3863 1.84715 17.2353 1.8515Z" fill="#9A9A9A"/>
</svg>
